<svg
  version="1.1"
  xml:space="preserve"
  xmlns="http://www.w3.org/2000/svg"
  height="150px"
  width="150px"
  shape-rendering="auto"
  style="height: 100%; width: 100%; background: rgb(255, 255, 255) none repeat scroll 0% 0%;"
  viewBox="0.00000762939453125 -0.00000762939453125 173.77395629882812 294.9999694824219"
>
          <g style="transform-origin: 50% 50% 0px; transform: rotate(0deg) scale(0.8);" class="ldl-scale"><g
      class="ldl-ani"
      style="transform-origin: 86.887px 147.5px 0px; transform: scale(0.91); animation: 1.47059s linear 0s infinite alternate forwards running breath-ca6c7c4d-0378-4b94-9d6a-b15df36ee917;"
    >

        <g class="ldl-layer"><g class="ldl-ani"><g>
        <title>Layer 1</title>
        <g class="ldl-layer"><g class="ldl-ani"><g class="st0" opacity="0.5" id="svg_1">
          <g class="ldl-layer"><g class="ldl-ani"><g id="svg_2">
          <g class="ldl-layer"><g class="ldl-ani"><g id="svg_3">
            <g class="ldl-layer"><g class="ldl-ani"><path
                                    class="st1"
                                    d="m0.00001,90.2c8.3,4.1 8.5,7.2 14.5,8.1c6,1 9,1 9,1l-4.2,-4.9l7.1,0.5l-2.1,-4.8l6.6,1.3l-2.6,-4.7l6.8,0.7l-1.4,-4.4l5.1,-1c0,0 8.9,-30.1 55.2,-35.4c0,0 -20.4,-2.8 -37.5,6.2c0,0 3.9,-9 20.1,-11c0,0 -11.4,-2.5 -24,6.4c3,-13.1 10.5,-15.1 8.3,-28.2c-1.8,-10.8 10.1,-20 10.1,-20c-27.6,13.5 -5.3,18.9 -28.5,41.7c-10,9.8 -14.2,15 -15.3,20.3c-1,5 -1.7,14.1 -1.7,14.1s-2.1,3.7 -7.2,6.4c-1.4,0.6 -3.4,-0.3 -3.4,-0.3s-2.9,6.5 -14.9,8zm30.4,-14.4c0,0 2.8,-9.5 6.2,-17.4c0.1,0.1 7.8,9 -6.2,17.4z"
                                    fill="#670000"
                                    id="svg_4"
                                    style="fill: rgb(103, 0, 0);"
                                  /></g></g>
            <g class="ldl-layer"><g class="ldl-ani"><path
                                    class="st1"
                                    d="m28.20001,100.5c0,0 4,0.8 7.7,3.3c2.3,1.5 4.6,3.1 6.5,5.8c-0.2,-12 9.2,-20.5 12.9,-24.3c0,0 5.2,-23.6 40,-23.4c0,0 -30.1,-8.9 -51,22.5l0.4,2.9l-4.8,0.5l1.8,3.7l-5,0.2l2.5,3.7l-5.8,-0.3l3,3.7l-8.2,1.7z"
                                    fill="#670000"
                                    id="svg_5"
                                    style="fill: rgb(103, 0, 0);"
                                  /></g></g>
          </g></g></g>
          <g class="ldl-layer"><g class="ldl-ani"><path
                              class="st1"
                              d="m56.30001,77.5c22.2,7.3 17.8,24.3 17.8,24.3c43,-16.8 59.5,17.7 59.5,17.7c-23.5,-25.7 -55.5,-15.3 -68.5,-2.5c-12.9,12.8 -13.1,33.4 -5.1,40.6c8,7.2 19,2.7 21,-3.6c2,-6.3 -1.6,-12.7 -7.4,-14.1c-5.8,-1.4 -9,2.7 -9,2.7s0.6,-20 20.6,-27.3c28.3,-10.3 40.3,17.4 40.3,17.4s-10.9,-13.9 -23.8,-12.6c-8.7,0.8 -14.6,6 -15,12.5c-0.3,5.4 3.3,10.2 10.2,9.6c7.5,-0.7 9.3,-11.4 4.2,-14.4c0,0 8.9,0.8 9.7,10.1c0.9,10.2 -12,16.1 -21.4,12.6c0,0 2,6 -0.5,11.2c0,0 44.8,51 -22.2,118c0,0 56.6,-72 11.9,-110c0,0 -6.7,3.8 -15.2,1c0,0 32.7,20 16.9,64c0,0 9.1,-30.6 -19,-54.1c-14.9,-12.5 -25,-22.4 -16.4,-47.3c-40.1,64.5 74.2,62.6 3.1,161.7c0,0 31.5,-51.2 5.5,-85.6c-21.5,-28.5 -30,-36.8 -24.4,-61.4c4,-17.4 16.6,-26.8 28.4,-38.5c18.3,-18.2 -3.8,-26.2 -3.8,-26.2l2.6,-5.8z"
                              fill="#670000"
                              id="svg_6"
                              style="fill: rgb(103, 0, 0);"
                            /></g></g>
          <g class="ldl-layer"><g class="ldl-ani"><path
                              class="st1"
                              d="m67.70001,66.8c0,0 24.4,6.3 21.7,31.4c8.9,0.6 11.7,1.2 11.7,1.2s-2.1,-29.2 -27.4,-35.9c-7.5,3.3 -6,3.3 -6,3.3z"
                              fill="#670000"
                              id="svg_7"
                              style="fill: rgb(103, 0, 0);"
                            /></g></g>
          <g class="ldl-layer"><g class="ldl-ani"><path
                              class="st1"
                              d="m113.90001,131.3c0,0 14.3,17.1 -7.7,23.6c0,0 39.6,40.8 -7.7,99.5c0,0 112.1,-95.2 62.7,-192c-29.2,-57.2 -94.9,-42.3 -94.9,-42.3s61.5,-7.1 89.1,44.3c24.7,46 8.7,112.1 -35,164.1c0,0 16,-39.6 -3.5,-71c0,0 6.7,-4.3 7.2,-11c0.3,-4.1 -0.7,-11.1 -10.2,-15.2z"
                              fill="#670000"
                              id="svg_8"
                              style="fill: rgb(103, 0, 0);"
                            /></g></g>
          <g class="ldl-layer"><g class="ldl-ani"><path
                              class="st1"
                              d="m66.30001,20.2c0,0 28.9,-1.4 47.4,18.9c18.6,20.4 -12.9,58.3 -12.9,58.3l7.9,5.2c0,0 57.2,-69.7 -29.8,-83.9c-7.5,0.6 -12.6,1.5 -12.6,1.5z"
                              fill="#670000"
                              id="svg_9"
                              style="fill: rgb(103, 0, 0);"
                            /></g></g>
          <g class="ldl-layer"><g class="ldl-ani"><path
                              class="st1"
                              d="m118.30001,229.5c41.8,-68.7 4.8,-111.7 4.8,-111.7s45,32.4 7.7,100.5c-22,28.9 -20.9,24 -20.9,24l8.4,-12.8z"
                              fill="#670000"
                              id="svg_10"
                              style="fill: rgb(103, 0, 0);"
                            /></g></g>
          <g class="ldl-layer"><g class="ldl-ani"><path
                              class="st1"
                              d="m150.30001,172.1c0,0 8.8,-50.8 -26.4,-75.1c0,0 8.5,-13.3 9,-29.5c0.6,-20.8 -8.7,-30.6 -8.7,-30.6s28.5,19.5 35.1,50.1c0,0 -6.1,-18.2 -22.8,-33.2c2.4,8.9 2.3,16.4 2,23.1c24.7,21.3 21.4,49.5 21.4,49.5c-2.8,-21.9 -22.6,-42.3 -22.6,-42.3s-1.7,6 -4.7,11.6c0.1,-0.1 32.7,28.3 17.7,76.4z"
                              fill="#670000"
                              id="svg_11"
                              style="fill: rgb(103, 0, 0);"
                            /></g></g>
          </g></g></g>
        </g></g></g>
        </g></g></g>
        </g></g></svg>
